# xmcd
# Copyright (C) 1995-1998 Ti Kan
#
# Track frame offsets:
#       150
#       15925
#       33974
#       49787
#       67174
#       81262
#       100979
#       117555
#       134608
#       152183
#       170289
#       187062
#       203135
#       221324
#       248609
#       261484
#       278045
#       294381
#
# Disc length: 4221 seconds
#
# Revision: 16
# Processed by: cddbd v1.5.1PL0 Copyright (c) Steve Scherf et al.
# Submitted via: CD-Transfer v1.0
#
DISCID=0a107b12
DTITLE=Van Halen - Euro Express 581
DYEAR=04
DGENRE=
TTITLE0=The Way I Am (Alt.acoustic Vers.)
TTITLE1=We Are (Location Mix)
TTITLE2=Renegade Cavalcade
TTITLE3=Hermanita (Bachata Radio)
TTITLE4=You And Me Bubblin'
TTITLE5=Tu Credi (Milnaro Remix))
TTITLE6=Veo Veo (Single Mix)
TTITLE7=Lady
TTITLE8=Right About Now
TTITLE9=Underground
TTITLE10=Shout (Radio Mix)
TTITLE11=Because Of You
TTITLE12=Man Of The Hour
TTITLE13=Yellow Ledbetter
TTITLE14=Calor (Radio Swing Mix)
TTITLE15=Omerta
TTITLE16=Whatever Happened To Corey Haim
TTITLE17=Up For Breakfast
EXTD=
EXTT0=
EXTT1=
EXTT2=
EXTT3=
EXTT4=
EXTT5=
EXTT6=
EXTT7=
EXTT8=
EXTT9=
EXTT10=
EXTT11=
EXTT12=
EXTT13=
EXTT14=
EXTT15=
EXTT16=
EXTT17=
PLAYORDER=
